<?xml version="1.0" encoding="utf-8"?>
<!-- Generator: Adobe Illustrator 22.1.0, SVG Export Plug-In . SVG Version: 6.00 Build 0)  -->
<svg version="1.1" id="Layer_1" xmlns="http://www.w3.org/2000/svg" xmlns:xlink="http://www.w3.org/1999/xlink" x="0px" y="0px"
	 viewBox="0 0 45.4 48" style="enable-background:new 0 0 45.4 48;" xml:space="preserve">
<style type="text/css">
	.st0{fill:#8C43FF;}
</style>
<title>Shape</title>
<desc>Created with Sketch.</desc>
<path class="st0" d="M44.1,33.5c-0.7,1.5-1.4,3-2.4,4.4c-3.6,5.2-8.5,8.5-14.8,9.7c-2.2,0.4-4.5,0.5-6.7,0.2
	c-2.9-0.3-5.6-1.2-8.2-2.7c-2-1.2-3.8-2.7-5.4-4.3c-1.4-1.3-2.3-2.9-3.4-4.5c-1.7-2.8-2.6-5.8-3.1-9c-0.7-5.1,0-10,2.4-14.6
	C6.3,5.8,12,1.3,19.9,0.2c7.8-1.1,14.3,1.6,19.6,7.3c3.1,3.3,5,7.3,5.9,11.7c-0.9,0-1.7,0-2.5,0c-2.8,0-5.7,0-8.5,0
	c-0.4,0-0.6-0.1-0.7-0.5c-3.5-7.4-12.3-9-18-4c-3,2.6-4.4,5.9-4.2,9.8c0.3,5,2.7,8.8,7.4,10.8c5.2,2.2,11.4,0,14.2-4.9
	c0,0,0.5-1.6,2.5-1.6c3,0.1,6.1,0,9.1,0c0.5,0,0.6,0,0.5,0.6C45,30.9,44.6,32.2,44.1,33.5z"/>
</svg>
