<?xml version="1.0" encoding="utf-8"?>
<!-- Generator: Adobe Illustrator 22.1.0, SVG Export Plug-In . SVG Version: 6.00 Build 0)  -->
<svg version="1.1" id="Calque_1" xmlns="http://www.w3.org/2000/svg" xmlns:xlink="http://www.w3.org/1999/xlink" x="0px" y="0px"
	 viewBox="0 0 303.1 69.4" style="enable-background:new 0 0 303.1 69.4;" xml:space="preserve">
<g id="Layer_2_1_">
	<path d="M88.2,30.9l-24,36.8c-0.7,1.1-1.9,1.7-3.1,1.7c-1.5,0-2.8-0.8-3.5-2.1c-0.7-1.3-0.7-2.8,0.2-4.1l3.4-5.3
		c0.8-1.2,0.8-2.7,0.1-3.9L51.2,37c-0.6-0.9-1.5-1.6-2.5-1.8L42.3,34c-1.3-0.2-2.3-1-2.8-2.1c-0.5-1.2-0.4-2.5,0.3-3.5
		c0.7-1.1,1.9-1.8,3.2-1.8c0.2,0,0.5,0,0.7,0.1l9.7,1.9c1.1,0.2,2,0.8,2.5,1.8L64.1,44c0.7,1.1,1.8,1.8,3.1,1.8
		c1.3,0,2.5-0.6,3.2-1.7l8.9-13.3c0.7-1.1,0.8-2.5,0.1-3.6l-9.9-16.6C69,9.7,68,9.1,67,8.8l-7.2-1.4c-1.2-0.2-2.2-1.1-2.7-2.2
		s-0.4-2.5,0.3-3.5c0.9-1.3,2.4-1.9,3.9-1.7l10.6,2c1,0.2,2,0.8,2.5,1.8L88.2,27C88.9,28.2,88.9,29.7,88.2,30.9"/>
	<path d="M70.6,30.5c-0.7,1.1-1.9,1.7-3.1,1.7h-0.1c-1.3,0-2.5-0.7-3.1-1.8l-3.8-6.3c-0.5-0.9-1.4-1.5-2.4-1.7l-16-3.5
		c-1.5-0.3-3.1,0.3-3.9,1.6l-8.5,12.9c-0.7,1.1-0.8,2.3-0.3,3.5s1.5,2,2.7,2.2l11.6,2.3c1,0.2,1.9,0.8,2.5,1.7l6.4,10.6
		c0.7,1.2,0.7,2.8-0.1,4L52.4,58c-0.7,1-1.9,1.7-3.2,1.6c-1.3,0-2.4-0.7-3.1-1.8l-4.8-7.7c-0.5-0.9-1.4-1.5-2.5-1.7l-14.3-2.8
		c-1.5-0.3-3,0.3-3.9,1.6L6.9,67.7c-0.7,1.1-1.9,1.7-3.1,1.7c-1.4,0-2.6-0.7-3.3-2c-0.7-1.2-0.6-2.7,0.2-3.8l34.1-51.4
		c0.7-1.1,1.9-1.7,3.1-1.7c0.2,0,0.5,0,0.7,0.1l24,4.8c1,0.2,1.9,0.9,2.5,1.8l5.6,9.5C71.4,27.8,71.4,29.3,70.6,30.5"/>
	<g>
		<path d="M116.9,25.9c10.7,0,17.9,8,17.9,19.7v2.1h-26.6c0.6,4.5,4.2,8.3,10.3,8.3c3.3,0,7.3-1.3,9.5-3.6l4.1,6.1
			c-3.6,3.3-9.2,5-14.7,5c-10.9,0-19.1-7.3-19.1-18.8C98.4,34.3,106,25.9,116.9,25.9z M108.1,41.3h17.6c-0.2-3.4-2.6-7.9-8.8-7.9
			C111,33.4,108.5,37.8,108.1,41.3z"/>
		<path d="M143.7,35h-5.9v-8.2h5.9v-1.9c0-7.8,5-12.4,12.1-12.4c2.7,0,5.1,0.6,6.8,1.5l-1.9,6.7c-0.8-0.5-1.9-0.7-3-0.7
			c-2.7,0-4.4,1.8-4.4,5.2V27h7.3v8h-7.3v27.5h-9.5V35H143.7z M165.9,35H160v-8.2h5.9v-1.9c0-7.8,5-12.4,12.1-12.4
			c2.7,0,5.1,0.6,6.8,1.5l-1.9,6.7c-0.8-0.5-1.9-0.7-3-0.7c-2.7,0-4.4,1.8-4.4,5.2V27h7.3v8h-7.3v27.5H166V35H165.9z"/>
		<path d="M203.2,25.9c10.7,0,17.9,8,17.9,19.7v2.1h-26.6c0.6,4.5,4.2,8.3,10.3,8.3c3.3,0,7.3-1.3,9.5-3.6l4.1,6.1
			c-3.6,3.3-9.2,5-14.7,5c-10.9,0-19.1-7.3-19.1-18.8C184.7,34.3,192.3,25.9,203.2,25.9z M194.4,41.3H212c-0.2-3.4-2.6-7.9-8.8-7.9
			C197.4,33.4,194.8,37.8,194.4,41.3z"/>
		<path d="M250.1,41c0-5-2.6-6.7-6.6-6.7c-3.7,0-6.6,2.1-8.1,4.2v24.1H226V26.8h9.4v4.7c2.3-2.7,6.7-5.6,12.5-5.6
			c7.8,0,11.6,4.4,11.6,11.4v25.2h-9.4V41z"/>
		<path d="M269.6,53.7V35h-5.9v-8.2h5.9V17h9.5v9.8h7.3V35h-7.3v16.1c0,2.2,1.2,3.9,3.3,3.9c1.4,0,2.7-0.5,3.3-1l2,7.1
			c-1.4,1.3-3.9,2.3-7.8,2.3C273.2,63.5,269.6,60.1,269.6,53.7z"/>
		<path d="M291.8,15.9c0-3.1,2.6-5.6,5.6-5.6c3.1,0,5.6,2.5,5.6,5.6s-2.5,5.6-5.6,5.6C294.4,21.6,291.8,19.1,291.8,15.9z
			 M292.8,26.8h9.4v35.7h-9.4V26.8z"/>
	</g>
</g>
</svg>
