<?xml version="1.0" encoding="utf-8"?>
<!-- Generator: Adobe Illustrator 22.1.0, SVG Export Plug-In . SVG Version: 6.00 Build 0)  -->
<svg version="1.1" id="Layer_1" xmlns="http://www.w3.org/2000/svg" xmlns:xlink="http://www.w3.org/1999/xlink" x="0px" y="0px"
	 viewBox="0 0 1032.2 408.2" style="enable-background:new 0 0 1032.2 408.2;" xml:space="preserve">
<style type="text/css">
	.st0{fill:#FEFEFE;}
</style>
<g id="cD47gw.tif">
	<g>
		<path class="st0" d="M697.1,408.1c-230.8,0-461.7,0-692.5,0.1c-3.7,0-4.6-0.8-4.6-4.6c0.1-133,0.1-266,0-399C0,0.8,0.8,0,4.6,0
			c341,0.1,682,0.1,1023,0c3.7,0,4.6,0.8,4.6,4.6c-0.1,57.8-0.1,115.7-0.1,173.5c-0.3-0.1-0.8-0.3-0.8-0.5c-1.4-13.7-6.2-26.1-13-38
			c-7.1-12.5-16.4-23.2-27.5-32c-14.3-11.3-30.4-18.7-48.7-21.8c-16.5-2.8-32.7-2.4-48.6,1.7c-20.4,5.3-37.7,15.9-52.1,31.6
			c-9.4,10.3-17.3,21.3-22.3,34.3c-3.9,10.2-7,20.5-7,31.5c0,2.3,0.5,3.1,3,3.1c15.7-0.1,31.3-0.1,47-0.1c1.7,0,2.9,0.3,3.2-2.3
			c1.8-14,8.5-25.6,18.9-35.2c15.3-14.1,33.6-18.1,53-12.7c23.4,6.5,37.2,23.1,41.8,46.9c0.7,3.4,1.8,3.4,4.2,3.4
			c16.3-0.1,32.6,0,49,0c0,5.3,0,10.7,0,16c-16.7,0-33.3,0-50,0.1c-1.3,0-3.7-1.4-4,1.4c-1,9.3-5.3,17-11,24.3
			c-10.2,13.1-23.5,20.8-40,22.1c-12.4,1-24.2-1.4-34.9-8.3c-13.4-8.6-22.4-20.6-25.9-36.1c-0.8-3.6-2-3.6-4.6-3.6
			c-13.5,0.1-27,0-40.5,0c-9.5,0-9.6,0-8.1,9.6c1.7,10.9,5,21.3,10.3,30.9c7.6,13.8,17.8,25.7,30.2,35.7
			c19,15.3,40.8,22.5,64.8,23.8c8.2,0.5,16.4-0.7,24.5-2c10.9-1.7,21.3-5.1,30.9-10.4c13.8-7.6,25.8-17.8,35.6-30.3
			c8.5-10.9,14.9-22.8,18.9-36.1c1.5-5,1.7-10.3,3.8-15.1c0,64.7,0,129.3,0.1,194c0,3.4-0.7,4.1-4.1,4.1c-101-0.1-202-0.1-303-0.1
			c1.5-2.1,3.6-0.6,5.4-1.1c22.4-5.5,41.2-16.5,55.9-34.6c12.8-15.8,20.9-33.8,21.4-53.9c1-37.1,0.3-74.3,0.3-111.5
			c0-1.9-0.2-3-2.6-3c-16,0.1-32,0.1-48,0c-1.8,0-2.9,0.5-3.5,2.5c-1.1,3.5-2.3,7.1-4.3,10.2c-13.4,20.1-31.6,30.5-56.4,26.3
			c-20.3-3.4-34.2-15.1-41.6-34.1c-1.5-3.9-3.1-5.2-7.2-5c-8.7,0.3-17.3,0.2-26,0.1c-5.3-0.1-10.6-0.7-13.4,5.4
			c-0.5,1-1.5,2-2.5,2.4c-6.2,2-4.4,6.2-3,10.4c0.5,1.4,1,2.7,1.6,4c7.8,20,20.1,36.6,37.6,49.2c14,10,29.2,16.6,46.5,18.9
			c13.5,1.7,26.7,1.3,40.1-0.8c9.9-1.5,19-5.6,28.7-9.7c0,9.1-0.4,17.7,0.1,26.2c0.7,12.9-4.4,22.8-13.1,31.8
			c-12.2,12.6-33.7,15.1-48.5,7.9c-15.3-7.4-23.7-20.2-25.4-37.2c-0.2-1.9-0.6-2.5-2.6-2.5c-16,0.1-32,0.1-48,0
			c-1.9,0-2.6,0.6-2.6,2.5c0,4.1,0.5,8.2,0.9,12.3c1.1,10.9,4.3,21.3,9.5,30.7c6.2,11.4,14,21.8,24.4,30.1
			c9.4,7.6,19.4,13.7,30.8,17.8C685.4,405.5,691.4,406,697.1,408.1z M125.1,96.2c0-3.3-0.3-5.8,0.1-8.3c0.3-2.2-1.1-2.6-2.4-2.6
			c-15.5,0-31,0.1-46.5,0.1c-3.2,0-4.3,0.6-4.3,4.3c0.2,36.5,0.1,73,0.1,109.5c0,30.7,0,61.3,0,92c0,3.3,0.3,4.2,4.5,4.3
			c14.8,0.2,29.7-0.2,44.5,0.2c4.1,0.1,5.2-1.1,5.1-5.2c-0.2-39.5,0-79-0.1-118.5c-0.1-20.9,17.1-37.8,37.8-36.1
			c16.5,1.3,31.4,15.7,31.3,32.9c-0.1,40.7,0,81.3-0.2,122c0,4.1,1.5,4.9,5,4.9c14.8-0.2,29.7-1,44.5-0.1c6,0.4,5.6-1.8,5.6-5.7
			c-0.1-40.3,0-80.7-0.1-121c0-8.7,3.2-16,9-22.3c7.9-8.5,17.8-11.4,29.2-10.6c9.2,0.6,16.6,4.7,22.3,11.3
			c6.2,7.2,8.5,16.1,8.5,25.7c0,18.3,0,36.7,0,55c0,21.5,0,43,0,64.5c0,2-0.1,3.4,2.6,3.3c15.5-0.2,31-0.3,46.4-0.2
			c3.1,0,4.1-0.4,4.1-3.9c-0.2-39.2-0.5-78.3,0.1-117.5c0.2-16.7-3-32.2-11.3-46.6c-9.2-16.2-22.6-28.2-39.2-36.1
			c-13.3-6.4-27.7-8.1-42.6-7.6c-18.6,0.6-34.5,7.4-49.2,17.9c-2.5,1.8-4,5.6-7,6.1c-3.4,0.5-4.7-3.7-7.1-5.5
			c-14.9-11-31.2-17.6-50-18.5C150.7,83.2,137.3,86.2,125.1,96.2z M590.1,131c0-13.7-0.1-27.3,0.1-41c0.1-3.4-1-4.1-4.1-4
			c-14.7,0.2-29.3,0.2-44,0c-4.2,0-6.5,0.6-5.2,5.6c0.3,1.2,0.5,4.5-3.6,2.6c-21.3-10.3-43.8-12.3-67-9.2
			c-21.5,2.9-39.9,12.7-55.6,27.1c-11.2,10.3-19.7,22.7-25.7,36.9c-7.9,18.7-9.6,38.2-6.7,58c1.9,12.8,6.4,25.1,13.4,36.4
			c9.3,14.9,21.3,27.1,36,36.5c12,7.7,25.3,12.4,39.6,14.3c13.4,1.8,26.7,1.5,40.1-0.7c9.3-1.5,17.9-4.8,26.4-8.7
			c2.4-1.1,3-0.6,2.7,2c-0.1,1.3-0.1,2.6-0.1,3.9c-0.1,3.4,0.4,5.8,5.4,5.6c14.6-0.5,29.3-0.3,44-0.1c3.4,0,4.5-0.6,4.4-4.2
			c-0.2-23.8-0.1-47.6,0-71.5c0-3.3-0.7-4.9-4.3-5.5c-5.7-1-9.9-4.3-12.9-9.4c-7.1-12.1-0.3-26.6,13.8-30.1c3.2-0.8,3.3-1.9,3.3-4.4
			C590.1,157.7,590.1,144.4,590.1,131z M54.1,148.7c0-47.5-0.1-94.9,0.1-142.4c0-4.6-1.3-5.4-5.5-5.3C34.6,1.3,20.4,1.3,6.3,1
			C1.7,0.8,1,2.2,1,6.4C1.1,101,1.1,195.6,1.1,290.2c0,0.8,0.1,1.7,0,2.5c-0.5,2.8,1.4,3.2,3.3,3.1c14.8-0.5,29.7-0.3,44.5-0.1
			c3.9,0.1,5.3-0.8,5.3-5.2C54,243.3,54.1,196,54.1,148.7z M753.7,96c-2.4-2.5-4.9-2.7-7-3.7c-23-10.1-47.1-11.3-71-5.8
			c-22.2,5.1-40.8,17.2-55.7,35c-12.3,14.6-19.8,31.1-23.7,49.5c-0.5,2.5-0.6,5,2.9,6.1c4.4,1.5,7.7,4.6,9.5,9c0.6,1.4,1.2,2,2.8,2
			c11.3-0.1,22.7-0.1,34,0c1.7,0,2.5-0.2,2.7-2.4c1.3-16.1,8-29.4,21.1-39.3c13.6-10.3,28.9-13.9,45.4-10
			c21.8,5.1,39.7,23.7,41.5,46.9c0.2,3.1,1.2,5,5.3,4.9c14.1-0.4,28.3-0.2,42.5-0.1c3,0,4.3-0.4,4.2-3.9c-0.2-31.5-0.1-63,0-94.4
			c0-3.2-0.9-3.8-3.9-3.8c-13.5,0.2-27,0.1-40.5,0.1C754.5,86.1,754.5,86.1,753.7,96z"/>
		<path d="M697.1,408.1c-5.7-2.1-11.7-2.6-17.4-4.7c-11.4-4.1-21.4-10.2-30.8-17.8c-10.4-8.4-18.2-18.8-24.4-30.1
			c-5.2-9.4-8.4-19.8-9.5-30.7c-0.4-4.1-1-8.1-0.9-12.3c0-2,0.6-2.5,2.6-2.5c16,0.1,32,0.1,48,0c1.9,0,2.4,0.6,2.6,2.5
			c1.7,17,10,29.8,25.4,37.2c14.8,7.2,36.3,4.7,48.5-7.9c8.8-9.1,13.9-19,13.1-31.8c-0.5-8.6-0.1-17.2-0.1-26.2
			c-9.7,4.1-18.8,8.1-28.7,9.7c-13.3,2.1-26.6,2.5-40.1,0.8c-17.3-2.2-32.5-8.9-46.5-18.9c-17.6-12.5-29.8-29.2-37.6-49.2
			c-0.5-1.3-1.1-2.7-1.6-4c-1.4-4.1-3.2-8.4,3-10.4c1-0.3,2-1.4,2.5-2.4c2.8-6.1,8.1-5.5,13.4-5.4c8.7,0.1,17.3,0.3,26-0.1
			c4.1-0.2,5.6,1.1,7.2,5c7.5,19,21.3,30.7,41.6,34.1c24.8,4.2,42.9-6.2,56.4-26.3c2-3,3.2-6.7,4.3-10.2c0.6-2.1,1.7-2.5,3.5-2.5
			c16,0,32,0.1,48,0c2.4,0,2.6,1,2.6,3c0,37.2,0.7,74.3-0.3,111.5c-0.5,20.1-8.6,38.1-21.4,53.9c-14.7,18.1-33.5,29.1-55.9,34.6
			c-1.8,0.4-4-1-5.4,1.1C715.8,408.1,706.4,408.1,697.1,408.1z"/>
		<path d="M1032.1,188.1c-16.3,0-32.6,0-49,0c-2.5,0-3.6,0-4.2-3.4c-4.7-23.7-18.4-40.4-41.8-46.9c-19.4-5.4-37.7-1.3-53,12.7
			c-10.4,9.5-17,21.1-18.9,35.2c-0.3,2.6-1.5,2.3-3.2,2.3c-15.7,0-31.3-0.1-47,0.1c-2.5,0-3-0.8-3-3.1c0-11,3.1-21.3,7-31.5
			c5-13,12.9-24.1,22.3-34.3c14.4-15.7,31.7-26.4,52.1-31.6c15.9-4.1,32.1-4.5,48.6-1.7c18.3,3.1,34.5,10.5,48.7,21.8
			c11.1,8.8,20.4,19.5,27.5,32c6.8,11.9,11.6,24.3,13,38c0,0.2,0.5,0.3,0.8,0.5C1032.1,181.4,1032.1,184.8,1032.1,188.1z"/>
		<path d="M1032.1,210.1c-2.1,4.8-2.3,10.1-3.8,15.1c-4,13.3-10.3,25.2-18.9,36.1c-9.8,12.5-21.8,22.7-35.6,30.3
			c-9.6,5.3-20,8.7-30.9,10.4c-8.1,1.3-16.3,2.4-24.5,2c-24-1.3-45.8-8.5-64.8-23.8c-12.4-10-22.6-21.8-30.2-35.7
			c-5.3-9.6-8.6-20.1-10.3-30.9c-1.5-9.6-1.4-9.6,8.1-9.6c13.5,0,27,0,40.5,0c2.6,0,3.8,0,4.6,3.6c3.5,15.5,12.5,27.5,25.9,36.1
			c10.7,6.9,22.5,9.3,34.9,8.3c16.5-1.3,29.8-9.1,40-22.1c5.7-7.3,9.9-15,11-24.3c0.3-2.8,2.7-1.4,4-1.4c16.7-0.1,33.3-0.1,50-0.1
			C1032.1,206.1,1032.1,208.1,1032.1,210.1z"/>
		<path d="M125.1,96.2c12.2-10,25.6-13,40.7-12.3c18.9,0.9,35.1,7.5,50,18.5c2.5,1.8,3.7,6,7.1,5.5c3-0.4,4.4-4.3,7-6.1
			c14.8-10.5,30.6-17.3,49.2-17.9c14.9-0.5,29.2,1.3,42.6,7.6c16.6,8,30,20,39.2,36.1c8.2,14.4,11.5,29.9,11.3,46.6
			c-0.5,39.2-0.2,78.3-0.1,117.5c0,3.5-1,3.9-4.1,3.9c-15.5-0.1-31,0-46.4,0.2c-2.7,0-2.6-1.4-2.6-3.3c0.1-21.5,0-43,0-64.5
			c0-18.3,0-36.7,0-55c0-9.5-2.2-18.4-8.5-25.7c-5.7-6.7-13.2-10.7-22.3-11.3c-11.4-0.8-21.3,2.1-29.2,10.6c-5.9,6.3-9,13.6-9,22.3
			c0,40.3,0,80.7,0.1,121c0,4,0.4,6.1-5.6,5.7c-14.8-0.9-29.6-0.1-44.5,0.1c-3.5,0-5-0.7-5-4.9c0.2-40.7,0-81.3,0.2-122
			c0.1-17.3-14.8-31.6-31.3-32.9c-20.7-1.7-37.9,15.2-37.8,36.1c0.2,39.5,0,79,0.1,118.5c0,4.1-1.1,5.3-5.1,5.2
			c-14.8-0.4-29.7,0-44.5-0.2c-4.3-0.1-4.5-1-4.5-4.3c0.1-30.7,0-61.3,0-92c0-36.5,0.1-73-0.1-109.5c0-3.7,1.1-4.3,4.3-4.3
			c15.5,0,31-0.1,46.5-0.1c1.3,0,2.7,0.4,2.4,2.6C124.8,90.4,125.1,92.9,125.1,96.2z"/>
		<path d="M590.1,131c0,13.3,0,26.7,0,40c0,2.5-0.1,3.6-3.3,4.4c-14.2,3.6-20.9,18-13.8,30.1c2.9,5.1,7.2,8.5,12.9,9.4
			c3.6,0.6,4.3,2.2,4.3,5.5c-0.1,23.8-0.1,47.6,0,71.5c0,3.7-1.1,4.3-4.4,4.2c-14.7-0.2-29.3-0.4-44,0.1c-5,0.2-5.5-2.3-5.4-5.6
			c0-1.3,0-2.6,0.1-3.9c0.3-2.6-0.3-3.1-2.7-2c-8.5,3.9-17.1,7.1-26.4,8.7c-13.3,2.2-26.6,2.5-40.1,0.7
			c-14.3-1.9-27.5-6.6-39.6-14.3c-14.7-9.4-26.7-21.5-36-36.5c-7-11.3-11.5-23.5-13.4-36.4c-3-19.8-1.2-39.2,6.7-58
			c6-14.2,14.6-26.6,25.7-36.9c15.7-14.5,34-24.2,55.6-27.1c23.2-3.2,45.7-1.2,67,9.2c4,2,3.9-1.4,3.6-2.6c-1.3-5,1-5.7,5.2-5.6
			c14.7,0.2,29.3,0.2,44,0c3.2,0,4.2,0.7,4.1,4C590,103.7,590.1,117.4,590.1,131z M538.1,189.4c0.9-29.6-23.9-53.5-52.2-54.2
			c-33.3-0.8-56.8,25-56.6,54.7c0.2,30.7,24,53,52.6,54.3C514,245.4,539.6,218.3,538.1,189.4z"/>
		<path d="M54.1,148.7c0,47.3-0.1,94.6,0.1,141.9c0,4.4-1.5,5.3-5.3,5.2c-14.8-0.3-29.7-0.5-44.5,0.1c-1.9,0.1-3.8-0.4-3.3-3.1
			c0.1-0.8,0-1.7,0-2.5C1.1,195.6,1.1,101,1,6.4C1,2.2,1.7,0.8,6.3,1c14.1,0.4,28.3,0.3,42.5,0c4.2-0.1,5.5,0.7,5.5,5.3
			C54,53.7,54.1,101.2,54.1,148.7z"/>
		<path d="M753.7,96c0.8-9.9,0.8-9.9,10.1-9.9c13.5,0,27,0.1,40.5-0.1c3,0,3.9,0.6,3.9,3.8c-0.1,31.5-0.2,63,0,94.4
			c0,3.5-1.2,4-4.2,3.9c-14.2-0.1-28.3-0.3-42.5,0.1c-4.1,0.1-5.1-1.9-5.3-4.9c-1.8-23.2-19.8-41.7-41.5-46.9
			c-16.5-3.9-31.8-0.2-45.4,10c-13,9.8-19.7,23.2-21.1,39.3c-0.2,2.1-1,2.4-2.7,2.4c-11.3,0-22.7-0.1-34,0c-1.6,0-2.3-0.6-2.8-2
			c-1.9-4.4-5.1-7.5-9.5-9c-3.5-1.2-3.4-3.7-2.9-6.1c3.9-18.4,11.5-34.9,23.7-49.5c14.9-17.8,33.5-29.9,55.7-35
			c24-5.5,48-4.4,71,5.8C748.9,93.3,751.4,93.5,753.7,96z"/>
		<path class="st0" d="M538.1,189.4c1.5,28.9-24.1,56.1-56.2,54.7c-28.6-1.2-52.3-23.5-52.6-54.3c-0.2-29.7,23.3-55.5,56.6-54.7
			C514.2,135.8,539,159.7,538.1,189.4z"/>
	</g>
</g>
</svg>
